<svg width="100" height="30" viewBox="0 0 100 30" fill="none" xmlns="http://www.w3.org/2000/svg">
<path fill-rule="evenodd" clip-rule="evenodd" d="M7.24654 1.48879C8.04656 0.688765 9.13162 0.239319 10.263 0.239319H23.914C25.0454 0.239319 26.1305 0.688765 26.9305 1.48879C27.7305 2.2888 28.18 3.37386 28.18 4.50526V21.569C28.18 22.7004 27.7305 23.7855 26.9305 24.5855C26.1305 25.3855 25.0454 25.835 23.914 25.835H10.263C9.13162 25.835 8.04656 25.3855 7.24654 24.5855C6.44652 23.7855 5.99707 22.7004 5.99707 21.569V4.50526C5.99707 3.37387 6.44652 2.28881 7.24654 1.48879ZM10.263 1.9457C9.58418 1.9457 8.93314 2.21536 8.45313 2.69538C7.97312 3.17539 7.70345 3.82642 7.70345 4.50526V21.569C7.70345 22.2479 7.97312 22.8989 8.45313 23.3789C8.93314 23.8589 9.58418 24.1286 10.263 24.1286H23.914C24.5929 24.1286 25.2439 23.8589 25.7239 23.3789C26.2039 22.8989 26.4736 22.2479 26.4736 21.569V4.50526C26.4736 3.82643 26.2039 3.17539 25.7239 2.69538C25.2439 2.21536 24.5929 1.9457 23.914 1.9457H10.263Z" fill="#282A2C"/>
<path fill-rule="evenodd" clip-rule="evenodd" d="M7.31918 4.95557C7.48046 5.39831 7.25229 5.88797 6.80954 6.04924L3.38996 7.2949C2.75227 7.52717 2.23291 8.0032 1.94612 8.6183C1.65934 9.23337 1.62857 9.93715 1.86056 10.5749M1.86056 10.5749L7.69635 26.6097C7.69634 26.6096 7.69636 26.6097 7.69635 26.6097C7.81135 26.9255 7.98748 27.2157 8.21461 27.4636C8.44177 27.7114 8.71552 27.912 9.02024 28.0541C9.32495 28.1961 9.65466 28.2767 9.99053 28.2913C10.3229 28.3057 10.6548 28.2552 10.9678 28.1426L20.4576 24.3964C20.8959 24.2234 21.3915 24.4385 21.5645 24.8768C21.7375 25.315 21.5225 25.8106 21.0842 25.9836L11.562 29.7426C11.0355 29.9344 10.4763 30.0203 9.91654 29.996C9.35676 29.9717 8.80725 29.8374 8.29939 29.6007C7.79153 29.364 7.33528 29.0296 6.95669 28.6165C6.5781 28.2035 6.28459 27.7199 6.09292 27.1934L0.257078 11.1585C-0.129638 10.0955 -0.078402 8.92239 0.399582 7.89723C0.877563 6.87207 1.74312 6.0787 2.80592 5.69158C2.80591 5.69159 2.80593 5.69158 2.80592 5.69158L6.2255 4.44593C6.66825 4.28465 7.1579 4.51282 7.31918 4.95557M11.1162 9.62445C11.1162 9.15324 11.4982 8.77126 11.9694 8.77126H20.5013C20.9725 8.77126 21.3545 9.15324 21.3545 9.62445C21.3545 10.0956 20.9725 10.4776 20.5013 10.4776H11.9694C11.4982 10.4776 11.1162 10.0956 11.1162 9.62445ZM11.1162 13.0372C11.1162 12.566 11.4982 12.184 11.9694 12.184H22.2077C22.6789 12.184 23.0609 12.566 23.0609 13.0372C23.0609 13.5084 22.6789 13.8904 22.2077 13.8904H11.9694C11.4982 13.8904 11.1162 13.5084 11.1162 13.0372ZM11.1162 16.45C11.1162 15.9788 11.4982 15.5968 11.9694 15.5968H17.0885C17.5597 15.5968 17.9417 15.9788 17.9417 16.45C17.9417 16.9212 17.5597 17.3031 17.0885 17.3031H11.9694C11.4982 17.3031 11.1162 16.9212 11.1162 16.45Z" fill="#282A2C"/>
<path d="M94.1783 20.5092C90.6315 20.5092 88.3322 17.6962 88.3322 14.1005C88.3322 10.7738 90.6315 7.69171 94.1783 7.69171C97.7007 7.69171 100 10.5292 100 14.1005C100 17.4516 97.7007 20.5092 94.1783 20.5092ZM90.3624 13.1954C90.3624 16.4242 92.0991 19.4574 94.6675 19.4574C96.7222 19.4574 97.9942 17.4516 97.9942 15.1523C97.9942 11.9479 96.3308 8.74353 93.7625 8.74353C91.4876 8.74353 90.3624 10.8472 90.3624 13.1954Z" fill="#282A2C"/>
<path d="M78.5274 19.3595C79.6526 19.2128 80.2397 18.9926 80.2397 17.7941V10.7983C80.2397 9.72197 79.9217 9.42844 79.0656 9.35506L78.454 9.30614V8.52339L82.0498 7.78957L82.0009 10.5536H82.1476C82.7347 8.96369 84.0556 7.71619 85.4743 7.71619C86.6973 7.71619 87.3333 8.49893 87.3333 9.28168C87.3333 10.04 86.7707 10.5536 86.0124 10.5536C85.4498 10.5536 85.2052 10.2846 84.8872 9.86874C84.716 9.64859 84.4959 9.52629 84.2757 9.52629C83.2728 9.52629 82.0498 11.4342 82.0498 13.3422V19.1883H84.1534V20.2157H78.5274V19.3595Z" fill="#282A2C"/>
<path d="M64.5293 24.2518C65.6545 24.105 66.2415 23.8848 66.2415 22.7107V10.7983C66.2415 9.72202 65.9235 9.42849 65.0674 9.35511L64.4559 9.30619V8.52344L68.0516 7.78962V9.86879C69.03 8.64575 70.4243 7.64285 72.1366 7.64285C74.8028 7.64285 77.0287 9.91771 77.0287 13.5624C77.0287 18.2833 73.6042 20.5582 71.1826 20.5582C69.7639 20.5582 68.8833 20.1668 68.0516 19.7265V24.0805H70.4243V25.1079H64.5293V24.2518ZM68.0027 16.302C68.0027 16.889 68.2473 17.6229 68.7121 18.1855C69.4214 19.0416 70.3265 19.433 71.2315 19.433C73.2129 19.433 75.0719 17.6229 75.0719 13.8804C75.0719 11.0918 73.5553 9.15942 71.5251 9.18388C70.3754 9.20835 69.0545 9.86879 68.0027 11.312V16.302Z" fill="#282A2C"/>
<path d="M61.0979 20.6071C60.1439 20.6071 59.4101 19.8977 59.4101 18.9193C59.4101 17.9653 60.1439 17.2315 61.0979 17.2315C62.0029 17.2315 62.7857 18.0142 62.7857 18.9193C62.7857 19.8977 62.0029 20.6071 61.0979 20.6071Z" fill="#282A2C"/>
<path d="M47.5097 9.74644C47.2651 9.15938 46.8003 9.03708 46.1888 9.03708H45.6996V7.98526H51.3256V9.03708H51.0076C49.9313 9.03708 49.4421 9.37953 49.809 10.3335L52.622 17.5739L55.4105 10.3335C55.6796 9.6486 55.5084 9.03708 54.6033 9.03708H53.6983V7.98526H59.0063V9.03708H58.5171C57.5631 9.03708 57.1473 9.37953 56.7314 10.3824L52.5975 20.2157H51.8637L47.5097 9.74644Z" fill="#282A2C"/>
<path d="M39.8443 20.5582C36.909 20.5582 34.5852 18.0632 34.5852 14.443C34.5852 10.9451 37.0802 7.64285 40.4558 7.64285C43.4889 7.64285 44.7854 9.62418 44.7854 11.3364C44.7854 12.1681 44.1739 12.8285 43.4156 12.8285C42.6328 12.8285 42.0702 12.2659 42.0702 11.5321C42.0702 11.0184 42.3393 10.6515 42.3637 10.2602C42.4616 8.96374 41.4098 8.5479 40.3824 8.5479C38.132 8.5479 36.4687 10.7005 36.4687 13.4645C36.4687 16.4732 38.1809 18.797 40.7004 18.7725C42.5839 18.7481 43.6357 17.5984 44.2228 16.889L44.8832 17.2804C43.9782 19.1394 41.9235 20.5582 39.8443 20.5582Z" fill="#282A2C"/>
</svg>
