<svg width="114" height="120" viewBox="0 0 114 120" fill="none" xmlns="http://www.w3.org/2000/svg">
<path fill-rule="evenodd" clip-rule="evenodd" d="M29.2193 5.03806C32.4451 1.81224 36.8202 0 41.3822 0H96.4254C100.987 0 105.363 1.81224 108.588 5.03806C111.814 8.26387 113.626 12.639 113.626 17.201V86.005C113.626 90.567 111.814 94.9421 108.588 98.1679C105.363 101.394 100.987 103.206 96.4254 103.206H41.3822C36.8202 103.206 32.4451 101.394 29.2193 98.1679C25.9935 94.9421 24.1812 90.567 24.1812 86.005V17.201C24.1812 12.639 25.9935 8.26387 29.2193 5.03806ZM41.3822 6.8804C38.645 6.8804 36.0199 7.96775 34.0845 9.90323C32.149 11.8387 31.0616 14.4638 31.0616 17.201V86.005C31.0616 88.7422 32.149 91.3673 34.0845 93.3028C36.0199 95.2382 38.645 96.3256 41.3822 96.3256H96.4254C99.1626 96.3256 101.788 95.2382 103.723 93.3028C105.659 91.3673 106.746 88.7422 106.746 86.005V17.201C106.746 14.4638 105.659 11.8387 103.723 9.90323C101.788 7.96774 99.1626 6.8804 96.4254 6.8804H41.3822Z" fill="black"/>
<path fill-rule="evenodd" clip-rule="evenodd" d="M29.5122 19.0165C30.1625 20.8017 29.2424 22.7761 27.4572 23.4264L13.6689 28.4491C11.0976 29.3856 9.00347 31.3051 7.84708 33.7852C6.69075 36.2653 6.56666 39.1031 7.50209 41.6746M7.50209 41.6746L31.033 106.329C31.033 106.33 31.0329 106.329 31.033 106.329C31.4967 107.603 32.2068 108.773 33.1227 109.772C34.0386 110.772 35.1424 111.581 36.3711 112.153C37.5997 112.726 38.9292 113.051 40.2835 113.11C41.6236 113.168 42.9621 112.964 44.2241 112.51L82.4885 97.4053C84.2558 96.7077 86.254 97.5748 86.9516 99.342C87.6493 101.109 86.7822 103.107 85.0149 103.805L46.6198 118.962C44.497 119.735 42.2423 120.082 39.9851 119.984C37.728 119.886 35.5123 119.344 33.4645 118.39C31.4168 117.435 29.5771 116.087 28.0505 114.421C26.524 112.756 25.3405 110.806 24.5677 108.683L1.03658 44.0277C-0.522722 39.7416 -0.31613 35.0114 1.61118 30.8778C3.53848 26.7442 7.02854 23.5452 11.3139 21.9842C11.314 21.9842 11.3139 21.9843 11.3139 21.9842L25.1023 16.9616C26.8875 16.3113 28.8619 17.2313 29.5122 19.0165M44.8224 37.8422C44.8224 35.9422 46.3627 34.402 48.2626 34.402H82.6646C84.5646 34.402 86.1048 35.9422 86.1048 37.8422C86.1048 39.7422 84.5646 41.2824 82.6646 41.2824H48.2626C46.3627 41.2824 44.8224 39.7422 44.8224 37.8422ZM44.8224 51.603C44.8224 49.703 46.3627 48.1628 48.2626 48.1628H89.545C91.445 48.1628 92.9852 49.703 92.9852 51.603C92.9852 53.503 91.445 55.0432 89.545 55.0432H48.2626C46.3627 55.0432 44.8224 53.503 44.8224 51.603ZM44.8224 65.3638C44.8224 63.4638 46.3627 61.9236 48.2626 61.9236H68.9038C70.8038 61.9236 72.344 63.4638 72.344 65.3638C72.344 67.2638 70.8038 68.804 68.9038 68.804H48.2626C46.3627 68.804 44.8224 67.2638 44.8224 65.3638Z" fill="black"/>
</svg>
